# xmcd
#
# Track frame offsets: 
#        150
#        20375
#        40262
#        59151
#        75817
#        93406
#        114991
#        140009
#        160647
#        184984
#        204763
#        222630
#        244104
#        260359
#        277280
#
# Disc length: 3925 seconds
#
# Revision: 1
# Processed by: cddbd v1.5.2PL0 Copyright (c) Steve Scherf et al.
# Submitted via: ExactAudioCopy v1.3
#
DISCID=d50f530f
DTITLE=Paul Young - The Essential
DYEAR=2006
DGENRE=Pop
TTITLE0=Every Time You Go Away
TTITLE1=Come Back And Stay
TTITLE2=Wherever I Lay My Hat (That's My Home)
TTITLE3=Love Of The Common People
TTITLE4=Tomb Of Memories
TTITLE5=I'm Gonna Tear Your Playhouse Down
TTITLE6=Everything Must Change
TTITLE7=What Becomes Of The Broken Hearted
TTITLE8=Heart Full Of Rain
TTITLE9=Don't Dream It's Over
TTITLE10=Now I Know What Made Otis Blue
TTITLE11=Some People
TTITLE12=Oh Girl
TTITLE13=Softly Whispering I Love You
TTITLE14=Love Will Tear Us Apart (Live)
EXTD=
EXTT0=
EXTT1=
EXTT2=
EXTT3=
EXTT4=
EXTT5=
EXTT6=
EXTT7=
EXTT8=
EXTT9=
EXTT10=
EXTT11=
EXTT12=
EXTT13=
EXTT14=
PLAYORDER=
